<svg width="512" height="512" viewBox="0 0 512 512" fill="none" xmlns="http://www.w3.org/2000/svg">
<rect width="512" height="512" fill="#F5F5F5"/>
<path d="M316.416 313.088C299.303 326.885 277.983 334.41 256 334.41C234.018 334.41 212.697 326.885 195.584 313.088C190.356 308.743 183.616 306.652 176.847 307.276C170.078 307.9 163.833 311.188 159.488 316.416C155.143 321.644 153.052 328.384 153.676 335.153C154.3 341.922 157.588 348.167 162.816 352.512C188.962 374.339 221.941 386.295 256 386.295C290.059 386.295 323.038 374.339 349.184 352.512C354.412 348.167 357.7 341.922 358.324 335.153C358.948 328.384 356.857 321.644 352.512 316.416C350.36 313.827 347.72 311.688 344.742 310.12C341.763 308.551 338.505 307.585 335.153 307.276C328.384 306.652 321.644 308.743 316.416 313.088ZM179.2 230.4C184.263 230.4 189.213 228.899 193.423 226.086C197.633 223.273 200.914 219.274 202.851 214.597C204.789 209.919 205.296 204.772 204.308 199.806C203.32 194.84 200.882 190.278 197.302 186.698C193.722 183.118 189.16 180.68 184.194 179.692C179.228 178.704 174.081 179.211 169.403 181.149C164.726 183.086 160.727 186.367 157.914 190.577C155.101 194.787 153.6 199.737 153.6 204.8C153.6 211.589 156.297 218.101 161.098 222.902C165.899 227.703 172.411 230.4 179.2 230.4ZM332.8 179.2C327.737 179.2 322.787 180.701 318.577 183.514C314.368 186.327 311.086 190.325 309.149 195.003C307.211 199.681 306.704 204.828 307.692 209.794C308.68 214.76 311.118 219.322 314.698 222.902C318.278 226.482 322.84 228.92 327.806 229.908C332.772 230.896 337.919 230.389 342.597 228.451C347.275 226.514 351.273 223.232 354.086 219.023C356.899 214.813 358.4 209.863 358.4 204.8C358.4 198.01 355.703 191.499 350.902 186.698C346.101 181.897 339.59 179.2 332.8 179.2ZM256 0C205.368 0 155.873 15.0141 113.774 43.1438C71.6751 71.2734 38.863 111.255 19.487 158.033C0.110921 204.811 -4.95873 256.284 4.91908 305.943C14.7969 355.602 39.1785 401.217 74.9808 437.019C110.783 472.821 156.398 497.203 206.057 507.081C255.716 516.959 307.189 511.889 353.967 492.513C400.745 473.137 440.727 440.325 468.856 398.226C496.986 356.127 512 306.632 512 256C512 222.382 505.378 189.092 492.513 158.033C479.648 126.974 460.791 98.7524 437.019 74.9806C413.248 51.2089 385.026 32.352 353.967 19.4868C322.908 6.62163 289.618 0 256 0ZM256 460.8C215.494 460.8 175.898 448.789 142.219 426.285C108.54 403.781 82.2904 371.796 66.7896 334.373C51.2888 296.951 47.233 255.773 55.1353 216.045C63.0375 176.318 82.5428 139.826 111.185 111.185C139.826 82.5427 176.318 63.0374 216.046 55.1352C255.773 47.2329 296.951 51.2886 334.374 66.7895C371.796 82.2903 403.781 108.54 426.285 142.219C448.789 175.898 460.8 215.494 460.8 256C460.8 310.316 439.223 362.408 400.816 400.815C362.408 439.223 310.316 460.8 256 460.8Z" fill="black"/>
</svg>
